<svg version="1.0" xmlns="http://www.w3.org/2000/svg" width="10.000000pt" height="10.000000pt"
viewBox="0 0 474.000000 516.000000" preserveAspectRatio="xMidYMid meet">

<g transform="translate(0.000000,516.000000) scale(0.100000,-0.100000)" fill="#000000" stroke="none">
<path d="M2206 5127 c-167 -88 -258 -240 -242 -406 13 -137 22 -119 -72 -151
     -330 -113 -586 -342 -736 -661 -85 -179 -109 -306 -131 -694 -25 -430 -56
     -630 -132 -849 -94 -271 -197 -412 -453 -621 -143 -117 -216 -192 -226 -230
     -3 -14 -4 -63 -2 -109 5 -98 29 -147 112 -229 185 -184 614 -293 1312 -333 67
     -3 127 -10 134 -14 9 -6 10 -19 1 -59 -17 -78 -14 -258 5 -322 55 -188 222
     -360 404 -417 30 -9 57 -20 58 -24 5 -11 262 -10 262 1 0 5 15 12 33 15 48 9
     149 59 210 105 102 75 185 196 222 323 19 68 22 231 5 315 -14 65 -8 73 57 73
     23 0 126 7 230 15 685 55 1031 161 1199 367 24 29 50 72 59 97 19 56 20 183 1
     219 -17 34 -112 123 -238 225 -224 182 -339 340 -427 591 -82 234 -110 408
     -136 860 -9 149 -20 302 -26 340 -66 470 -392 865 -839 1015 -77 26 -85 31
     -82 53 2 12 4 70 5 128 2 95 0 110 -25 163 -35 75 -123 166 -192 200 -30 15
     -60 27 -65 27 -6 0 -11 5 -11 10 0 6 -42 10 -107 9 -101 -1 -112 -3 -167 -32z
     m235 -187 c55 -15 116 -86 124 -144 11 -72 -2 -132 -38 -173 -86 -97 -229 -97
     -315 1 -34 39 -48 100 -39 167 6 47 61 118 109 142 38 19 106 22 159 7z m376
     -580 c324 -120 557 -383 647 -732 24 -93 30 -156 57 -608 33 -566 188 -997
     454 -1266 44 -44 136 -125 205 -180 69 -55 131 -112 138 -127 22 -45 -17 -110
     -94 -163 -187 -127 -558 -200 -1189 -235 -264 -14 -1066 -14 -1325 0 -645 37
     -1009 109 -1200 239 -71 48 -109 116 -88 159 7 15 76 78 153 139 219 176 318
     293 420 495 130 257 203 564 225 945 29 519 39 587 100 741 123 308 357 521
     679 619 95 29 118 28 211 -11 118 -51 244 -44 369 20 l45 23 71 -20 c38 -10
     94 -28 122 -38z m-59 -3610 c63 -198 -20 -399 -205 -498 -59 -31 -65 -32 -182
     -32 -109 0 -127 3 -169 24 -151 77 -242 219 -242 376 0 47 29 173 46 202 2 4
     167 6 366 5 l362 -2 24 -75z" />
</g>
</svg>