 <svg version="1.0" xmlns="http://www.w3.org/2000/svg"
    width="35.000000pt" height="30.000000pt" viewBox="0 0 24.000000 24.000000"
    preserveAspectRatio="xMidYMid meet">
   
   <g transform="translate(0.000000,24.000000) scale(0.100000,-0.100000)"
   fill="#86DCE7" stroke="#000000">
   <path d="M63 200 c-57 -34 -57 -106 0 -140 17 -11 40 -20 49 -20 9 0 18 -8 20
   -17 2 -13 10 -9 40 18 61 58 63 124 5 159 -17 11 -43 20 -57 20 -14 0 -40 -9
   -57 -20z m27 -70 c0 -5 -4 -10 -10 -10 -5 0 -10 5 -10 10 0 6 5 10 10 10 6 0
   10 -4 10 -10z m40 0 c0 -5 -4 -10 -10 -10 -5 0 -10 5 -10 10 0 6 5 10 10 10 6
   0 10 -4 10 -10z m40 0 c0 -5 -4 -10 -10 -10 -5 0 -10 5 -10 10 0 6 5 10 10 10
   6 0 10 -4 10 -10z"/>
   </g>
   </svg>
