
      <svg version="1.0" xmlns="http://www.w3.org/2000/svg"
      width="10.000000pt" height="10.000000pt" viewBox="0 0 980.000000 980.000000"
      preserveAspectRatio="xMidYMid meet">
     
     <g transform="translate(0.000000,980.000000) scale(0.100000,-0.100000)"
     fill="#ffffff" stroke="none">
     <path d="M4809 9784 c-61 -18 -136 -86 -165 -149 l-24 -50 0 -756 0 -755 26
     -52 c48 -96 151 -162 254 -162 103 0 212 70 256 165 l24 50 0 755 0 755 -24
     50 c-59 129 -208 192 -347 149z"/>
     <path d="M1546 8434 c-35 -11 -66 -32 -107 -73 -68 -68 -95 -140 -86 -223 13
     -108 14 -109 570 -664 497 -497 525 -523 582 -544 230 -85 450 135 365 365
     -21 57 -47 85 -544 582 -564 565 -559 561 -675 569 -34 2 -76 -2 -105 -12z"/>
     <path d="M8074 8432 c-28 -10 -68 -32 -90 -49 -21 -17 -260 -253 -531 -525
     -523 -524 -527 -529 -540 -636 -3 -31 0 -69 11 -104 47 -161 214 -246 371
     -188 57 21 85 47 582 544 581 579 568 564 567 691 0 89 -27 148 -96 210 -80
     72 -174 91 -274 57z"/>
     <path d="M4725 7480 c-632 -46 -1200 -305 -1650 -755 -411 -411 -663 -923
     -741 -1505 -22 -167 -22 -473 0 -640 39 -290 120 -560 246 -816 390 -793 1140
     -1324 2025 -1435 129 -16 461 -16 590 0 592 74 1109 325 1526 740 415 414 667
     925 744 1514 20 156 20 478 0 634 -78 595 -330 1104 -754 1523 -466 461 -1071
     720 -1736 743 -77 3 -189 1 -250 -3z m331 -570 c780 -63 1453 -567 1729 -1295
     93 -245 128 -443 128 -715 0 -272 -35 -470 -128 -715 -340 -896 -1276 -1434
     -2214 -1274 -741 126 -1345 642 -1582 1350 -386 1155 334 2385 1533 2619 185
     36 343 45 534 30z"/>
     <path d="M165 5156 c-95 -44 -165 -153 -165 -256 0 -105 74 -218 170 -259 50
     -21 50 -21 812 -19 l763 3 47 27 c160 95 196 297 76 433 -24 27 -64 58 -93 71
     l-50 24 -755 0 -755 0 -50 -24z"/>
     <path d="M8025 5156 c-95 -44 -165 -153 -165 -256 0 -103 67 -207 163 -255
     l53 -25 765 2 c709 3 766 4 796 21 170 92 213 303 91 442 -24 27 -64 58 -93
     71 l-50 24 -755 0 -755 0 -50 -24z"/>
     <path d="M2500 2869 c-50 -20 -103 -70 -577 -543 -419 -418 -526 -530 -543
     -569 -49 -110 -33 -218 45 -305 62 -69 121 -96 210 -96 127 -1 112 -14 691
     567 497 497 523 525 544 582 67 183 -55 371 -250 382 -49 2 -79 -2 -120 -18z"/>
     <path d="M7102 2872 c-71 -26 -118 -66 -156 -132 -28 -49 -31 -64 -31 -135 0
     -64 5 -89 24 -125 15 -30 191 -213 535 -558 573 -575 564 -568 691 -566 84 1
     128 18 189 74 63 58 89 118 90 205 1 124 11 112 -563 687 -558 560 -553 556
     -670 564 -39 3 -72 -1 -109 -14z"/>
     <path d="M4830 1931 c-88 -29 -156 -88 -191 -165 -18 -39 -19 -83 -19 -796 0
     -713 1 -757 19 -796 27 -59 77 -111 135 -142 73 -38 179 -38 252 0 59 31 109
     84 136 144 18 41 18 78 16 806 -3 846 2 782 -70 864 -61 70 -198 112 -278 85z"/>
     </g>
     </svg>
