
    <svg version="1.0" xmlns="http://www.w3.org/2000/svg"
    width="30.000000pt" height="30.000000pt" viewBox="0 0 5000.000000 5000.000000"
    preserveAspectRatio="xMidYMid meet">
   
   <g transform="translate(0.000000,5000.000000) scale(0.100000,-0.100000)"
   fill="#000000" stroke="none">
   <path d="M31219 42520 c-1 -3 -10 -1425 -19 -3160 -12 -2013 -15 -3200 -9
   -3280 35 -463 241 -908 558 -1202 268 -249 578 -380 929 -393 166 -7 5674 -38
   5859 -33 l142 3 -726 785 c-399 432 -882 954 -1073 1160 -1292 1397 -5624
   6083 -5652 6115 -4 5 -9 7 -9 5z"/>
   <path d="M12365 42493 c-77 -9 -236 -47 -314 -75 -597 -211 -1041 -780 -1135
   -1457 -14 -101 -16 -1715 -16 -16179 0 -11152 3 -16093 10 -16152 36 -290 141
   -580 294 -815 255 -390 635 -653 1071 -742 87 -17 534 -18 12530 -18 l12440 0
   105 23 c139 31 233 63 358 122 551 262 927 825 991 1484 8 77 11 3830 11
   12597 l0 12487 -222 6 c-123 3 -1521 13 -3108 21 -1675 9 -2931 20 -2995 26
   -907 81 -1665 826 -1854 1819 -46 245 -45 185 -33 2939 7 1428 15 2894 18
   3259 l7 662 -9064 -1 c-4985 -1 -9077 -4 -9094 -6z m22620 -11353 c82 -28 144
   -70 218 -150 78 -82 126 -164 166 -285 52 -157 52 -172 49 -1225 -4 -972 -4
   -975 -26 -1059 -74 -276 -250 -476 -460 -520 -76 -16 -19938 -16 -20014 0
   -180 38 -347 204 -427 425 -57 159 -56 134 -56 1214 l0 995 23 90 c62 247 215
   444 397 512 l60 22 10006 0 c9988 1 10006 1 10064 -19z m8 -5787 c207 -78 363
   -298 412 -582 22 -125 22 -1938 0 -2064 -32 -181 -98 -319 -213 -439 -90 -94
   -177 -142 -288 -158 -95 -13 -19862 -13 -19958 0 -107 16 -188 60 -282 154
   -96 97 -160 213 -202 364 l-27 97 0 1015 0 1015 27 98 c77 279 252 475 460
   516 24 5 4536 8 10028 7 l9985 -1 58 -22z m10 -5211 c77 -31 170 -103 230
   -177 64 -79 131 -218 159 -330 l23 -90 0 -1015 0 -1015 -23 -84 c-47 -171
   -115 -293 -219 -392 -69 -66 -128 -102 -203 -123 -50 -15 -966 -16 -10066 -14
   l-10011 3 -85 42 c-151 75 -268 226 -331 428 -45 145 -47 185 -47 1163 0 999
   1 1024 53 1177 78 227 230 391 408 439 47 13 1321 14 10054 13 l10000 -2 58
   -23z m-21 -5783 c195 -65 347 -257 415 -525 17 -64 18 -147 18 -1084 l0 -1015
   -23 -90 c-12 -49 -45 -137 -74 -194 -86 -175 -230 -299 -381 -330 -37 -8
   -2946 -10 -10042 -9 l-9990 3 -58 23 c-158 64 -294 223 -363 425 -53 155 -54
   177 -54 1179 0 612 4 953 11 1005 42 301 218 547 444 619 32 10 1983 13 10038
   13 l9998 1 61 -21z"/>
   </g>
   </svg>