<svg version="1.0" xmlns="http://www.w3.org/2000/svg"
            width="10.000000pt" height="10.000000pt" viewBox="0 0 980.000000 980.000000"
            preserveAspectRatio="xMidYMid meet">
           
           <g transform="translate(0.000000,980.000000) scale(0.100000,-0.100000)"
           fill="#ffffff" stroke="none">
           <path d="M4360 9784 c-14 -2 -79 -11 -145 -20 -1255 -165 -2441 -857 -3214
           -1874 -1038 -1365 -1288 -3188 -656 -4785 59 -151 221 -485 305 -630 140 -244
           309 -486 500 -715 137 -165 452 -478 618 -615 767 -632 1634 -998 2634 -1112
           217 -25 789 -25 1008 0 619 70 1138 218 1665 477 695 341 1284 829 1755 1455
           483 642 805 1423 919 2230 32 223 44 359 45 525 1 154 1 156 -30 220 -39 83
           -101 145 -184 184 -59 28 -74 31 -160 31 -88 0 -101 -3 -162 -33 -52 -26 -83
           -50 -135 -110 -327 -371 -627 -605 -1023 -796 -323 -155 -661 -250 -1019 -286
           -135 -13 -449 -13 -587 1 -1269 125 -2329 1043 -2639 2284 -65 264 -90 503
           -82 808 8 317 50 570 141 850 149 456 387 843 741 1202 133 135 170 198 181
           302 12 111 -24 210 -107 299 -71 74 -148 107 -259 110 -47 1 -96 0 -110 -2z
           m-925 -1106 c-222 -429 -356 -877 -407 -1368 -16 -161 -16 -579 0 -740 79
           -760 373 -1459 859 -2046 590 -712 1448 -1193 2358 -1323 641 -92 1272 -24
           1872 199 226 85 552 250 750 380 l31 21 -34 -113 c-337 -1121 -1154 -2058
           -2223 -2548 -1196 -547 -2613 -492 -3750 147 -736 413 -1321 1025 -1696 1773
           -297 595 -435 1182 -435 1855 0 338 30 615 101 930 302 1336 1262 2444 2544
           2936 55 21 101 39 102 39 1 0 -31 -64 -72 -142z"/>
           </g>
           </svg>