 <svg version="1.0" xmlns="http://www.w3.org/2000/svg"
  width="12.000000pt" height="12.000000pt" viewBox="0 0 1600.000000 1600.000000"
  preserveAspectRatio="xMidYMid meet">
 
 <g transform="translate(0.000000,1600.000000) scale(0.100000,-0.100000)"
 fill="#ffffff" stroke="#ffffff">
 <path d="M12869 13980 c-122 -25 -188 -45 -319 -97 -220 -87 -2241 -936 -7840
 -3296 -542 -228 -1445 -609 -2007 -845 -561 -237 -1054 -447 -1095 -468 -284
 -143 -479 -344 -559 -577 -69 -203 -63 -400 21 -600 96 -232 317 -448 594
 -582 51 -25 347 -130 671 -239 1136 -380 1887 -635 1893 -640 2 -3 170 -545
 372 -1203 591 -1931 589 -1923 683 -2107 97 -190 233 -342 364 -405 239 -117
 537 -100 780 43 28 17 370 321 759 676 390 355 718 653 730 663 22 17 33 9
 1230 -910 1119 -858 1214 -929 1292 -960 408 -165 859 -129 1201 95 76 50 235
 211 298 303 29 42 73 117 98 166 l45 91 180 918 c98 506 344 1763 545 2794
 201 1031 494 2530 650 3330 156 800 338 1732 404 2071 134 686 148 790 132
 955 -24 240 -98 407 -255 572 -121 127 -281 215 -461 253 -117 24 -289 24
 -406 -1z m-369 -3525 c-264 -1353 -681 -3486 -925 -4740 -291 -1493 -451
 -2292 -464 -2315 -10 -19 -34 -46 -52 -58 -29 -20 -43 -23 -90 -19 -31 3 -76
 14 -101 25 -25 11 -704 525 -1509 1142 -805 617 -1468 1124 -1474 1126 -12 5
 59 68 -964 -864 -449 -409 -817 -738 -819 -730 -1 7 81 544 182 1193 l185
 1180 33 30 c18 16 1121 1043 2450 2282 1366 1274 2431 2273 2450 2300 34 50
 39 82 24 156 -8 44 -52 77 -103 77 -95 0 -162 -36 -808 -437 -598 -370 -1362
 -844 -3713 -2299 -565 -351 -1192 -739 -1394 -864 -201 -125 -370 -224 -375
 -220 -4 4 -661 227 -1460 496 -799 269 -1449 492 -1445 495 4 4 232 102 507
 217 475 200 3395 1429 5715 2407 2562 1080 3085 1300 3780 1590 404 169 760
 318 790 330 l55 23 3 -31 c2 -18 -214 -1139 -478 -2492z"/>
 </g>
 </svg>