 <svg version="1.0" xmlns="http://www.w3.org/2000/svg"
  width="15.000000pt" height="15.000000pt" viewBox="0 0 980.000000 980.000000"
  preserveAspectRatio="xMidYMid meet">
 
 <g transform="translate(0.000000,980.000000) scale(0.100000,-0.100000)"
 fill="#505050" stroke="none">
 <path d="M4560 9789 c-1035 -75 -1998 -463 -2800 -1128 -150 -123 -501 -475
 -622 -621 -881 -1068 -1270 -2403 -1098 -3765 97 -760 384 -1513 817 -2142
 277 -403 628 -778 1018 -1087 680 -539 1533 -896 2400 -1005 1488 -188 2966
 303 4028 1338 595 580 1010 1244 1261 2019 466 1436 231 3039 -630 4282 -289
 418 -662 809 -1064 1117 -718 548 -1553 879 -2470 978 -174 19 -664 27 -840
 14z m615 -479 c1134 -73 2162 -541 2935 -1336 674 -693 1084 -1570 1192 -2549
 17 -159 18 -732 0 -880 -42 -359 -102 -642 -198 -939 -381 -1172 -1214 -2145
 -2304 -2691 -920 -461 -1985 -573 -2995 -315 -1016 259 -1898 862 -2513 1718
 -299 416 -543 933 -676 1432 -149 556 -186 1169 -106 1753 128 930 552 1796
 1210 2471 911 935 2163 1419 3455 1336z"/>
 <path d="M2680 6250 c-236 -64 -433 -229 -531 -446 -52 -114 -72 -222 -66
 -359 6 -144 22 -211 82 -330 101 -201 293 -358 512 -416 105 -29 278 -30 383
 -5 435 107 700 540 595 973 -9 38 -36 109 -60 158 -94 195 -259 339 -470 411
 -70 24 -99 28 -225 31 -122 3 -157 0 -220 -17z"/>
 <path d="M6680 6249 c-272 -71 -493 -289 -572 -565 -29 -103 -32 -304 -5 -404
 59 -222 221 -422 424 -524 106 -53 217 -78 348 -79 148 0 223 17 361 83 81 39
 118 65 184 127 185 174 269 378 258 627 -16 351 -259 648 -602 736 -107 27
 -290 27 -396 -1z"/>
 <path d="M2050 3583 c0 -112 134 -361 312 -581 97 -120 320 -344 466 -467 501
 -426 1048 -688 1609 -771 148 -23 467 -22 633 0 554 74 1076 280 1590 627 534
 359 997 868 1048 1149 6 30 8 57 6 59 -2 3 -14 -5 -27 -15 -464 -411 -647
 -552 -937 -726 -603 -362 -1270 -557 -1966 -575 -258 -6 -387 3 -584 43 -429
 88 -830 266 -1264 562 -226 153 -363 262 -672 534 -207 182 -214 187 -214 161z"/>
 </g>
 </svg>